<?xml version="1.0" ?>
<!-- Uploaded to: SVG Repo, www.svgrepo.com, Generator: SVG Repo Mixer Tools -->
<svg width="800px" height="800px" viewBox="0 0 32 32" xmlns="http://www.w3.org/2000/svg">
<defs>
<style>.cls-1{fill:#04009a;}.cls-2{fill:#77acf1;}</style>
</defs>
<g data-name="8. Place Holder" id="_8._Place_Holder">
<path class="cls-1" d="M24,32H8a1,1,0,0,1,0-2H24a1,1,0,0,1,0,2Z"/>
<path class="cls-1" d="M16,27h0a3,3,0,0,1-2.25-1C10.48,22.3,5,15.4,5,11a11,11,0,0,1,22,0c0,4.4-5.48,11.29-8.75,15A3,3,0,0,1,16,27ZM16,2a9,9,0,0,0-9,9c0,2.7,3.09,7.81,8.25,13.69A1,1,0,0,0,16,25h0a1,1,0,0,0,.75-.34C21.92,18.81,25,13.7,25,11A9,9,0,0,0,16,2Z"/>
<path class="cls-2" d="M14,6h4a0,0,0,0,1,0,0V9a1,1,0,0,1-1,1H15a1,1,0,0,1-1-1V6A0,0,0,0,1,14,6Z"/>
<path class="cls-1" d="M19,17H13a3,3,0,0,1-3-3V8a3,3,0,0,1,3-3h6a3,3,0,0,1,3,3v6A3,3,0,0,1,19,17ZM13,7a1,1,0,0,0-1,1v6a1,1,0,0,0,1,1h6a1,1,0,0,0,1-1V8a1,1,0,0,0-1-1Z"/>
</g>
</svg>